<?xml version="1.0" encoding="UTF-8"?>
<!DOCTYPE svg PUBLIC "-//W3C//DTD SVG 1.1//EN" "http://www.w3.org/Graphics/SVG/1.1/DTD/svg11.dtd">
<!-- Creator: CorelDRAW 2019 (64-Bit) -->
<svg xmlns="http://www.w3.org/2000/svg" xml:space="preserve" width="561px" height="389px" version="1.1" style="shape-rendering:geometricPrecision; text-rendering:geometricPrecision; image-rendering:optimizeQuality; fill-rule:evenodd; clip-rule:evenodd"
viewBox="0 0 101.23 70.1"
 xmlns:xlink="http://www.w3.org/1999/xlink">
 <defs>
  <style type="text/css">
   <![CDATA[
    .fil0 {fill:#373435}
    .fil1 {fill:#ED3237}
   ]]>
  </style>
 </defs>
 <g id="Layer_x0020_1">
  <metadata id="CorelCorpID_0Corel-Layer"/>
  <path class="fil0" d="M19.18 69.95l0 -8.59c0,-4.72 -6.3,-7.22 -9.56,-3.34 -3.13,-3.58 -9.62,-2.1 -9.62,4.01l0 7.92 2.63 0 0 -8.73c0,-1.52 1.48,-2.62 2.76,-2.62 1.47,0 2.86,1.01 2.86,2.67l0 8.68 2.68 0 0 -8.41c0,-1.54 0.94,-2.94 2.79,-2.94 1.86,0 2.86,1.32 2.86,2.96l0 8.39 2.6 0zm8.86 -11.26c2.39,0 4.3,2.01 4.3,4.43 0,2.32 -2.03,4.32 -4.38,4.32 -2.39,0 -4.34,-1.97 -4.34,-4.35 0,-2.43 1.99,-4.4 4.42,-4.4zm0.01 -2.64c-3.91,0 -7.07,3.14 -7.07,7.03 0,3.84 3.16,7 7.02,7 3.77,0 6.98,-3.16 6.98,-6.94 0,-3.95 -3.07,-7.09 -6.93,-7.09zm22.7 2.64c2.39,0 4.31,2.01 4.31,4.43 0,2.32 -2.04,4.32 -4.39,4.32 -2.38,0 -4.34,-1.97 -4.34,-4.35 0,-2.43 2,-4.4 4.42,-4.4zm0.01 -2.64c-3.91,0 -7.06,3.14 -7.06,7.03 0,3.84 3.15,7 7.01,7 3.77,0 6.98,-3.16 6.98,-6.94 0,-3.95 -3.07,-7.09 -6.93,-7.09zm23.4 2.64c2.39,0 4.3,2.01 4.3,4.43 0,2.32 -2.03,4.32 -4.38,4.32 -2.39,0 -4.34,-1.97 -4.34,-4.35 0,-2.43 1.99,-4.4 4.42,-4.4zm0.01 -2.64c-3.91,0 -7.07,3.14 -7.07,7.03 0,3.84 3.16,7 7.01,7 3.78,0 6.99,-3.16 6.99,-6.94 0,-3.95 -3.07,-7.09 -6.93,-7.09zm20.12 2.64c2.39,0 4.3,2.01 4.3,4.43 0,2.32 -2.03,4.32 -4.38,4.32 -2.39,0 -4.34,-1.97 -4.34,-4.35 0,-2.43 1.99,-4.4 4.42,-4.4zm4.43 9.73l0 1.53 2.51 0 0 -6.81c0,-3.95 -3.08,-7.09 -6.93,-7.09 -3.91,0 -7.07,3.14 -7.07,7.03 0,3.84 3.16,7 7.01,7 1.69,0 3.26,-0.63 4.48,-1.66zm-59.37 -9.68l3.38 0 0 -2.66 -3.38 0 0 -3.46 -2.63 0 0 11.55c0,4.39 3.06,5.93 6.06,5.93l0 -2.6c-1.69,0 -3.04,-0.63 -3.37,-2.25 -0.06,-0.46 -0.06,-0.53 -0.06,-1.4l0 -5.11zm46.23 11.21l0 -17.36 -2.68 0 0 17.36 2.68 0zm-23.48 0l-2.62 0 0 -7.96c0,-4.63 3.56,-6.22 6.67,-5.86l0 2.59c-2.73,-0.32 -4.05,1.12 -4.05,2.83 0,7.41 0,2.26 0,8.4z"/>
  <path class="fil1" d="M43.89 5.91c-0.02,0 -0.04,0.01 -0.07,0.01 -2.93,9.6 -5.87,19.21 -8.82,28.84 0.57,0 1.09,0 1.63,0 0.03,-0.11 0.07,-0.22 0.09,-0.32 0.56,-2.2 1.21,-4.36 2.17,-6.41 0.55,-1.17 1.19,-2.27 2.2,-3.11 1.11,-0.92 2.37,-1.33 3.79,-1 1,0.23 1.72,0.9 2.4,1.63 1.2,1.29 1.95,2.85 2.7,4.42 0.21,0.45 0.42,0.92 0.65,1.4 0.4,-0.86 0.78,-1.68 1.17,-2.49 0.72,-1.49 1.6,-2.88 2.84,-4 0.67,-0.6 1.44,-1.01 2.36,-1.06 1.57,-0.08 2.8,0.58 3.81,1.72 1,1.12 1.64,2.47 2.14,3.86 0.59,1.67 1.06,3.38 1.6,5.06 0.04,0.12 0.15,0.3 0.23,0.31 0.47,0.03 0.95,0.01 1.48,0.01 -2.95,-9.65 -5.89,-19.25 -8.82,-28.85 -0.03,0 -0.05,0 -0.08,0 -2.22,7.52 -4.45,15.03 -6.68,22.55 -0.03,0 -0.07,0 -0.1,0 -2.23,-7.52 -4.46,-15.04 -6.69,-22.57zm8.06 -5.91c0.76,0.09 1.52,0.17 2.28,0.29 5.24,0.83 9.7,3.18 13.33,7.04 3.51,3.73 5.57,8.17 6.12,13.27 1.01,9.28 -3.37,17.96 -11.44,22.68 -3.08,1.8 -6.43,2.81 -9.99,3.05 -0.13,0.01 -0.25,0.04 -0.37,0.06 -0.86,0 -1.71,0 -2.57,0 -0.09,-0.02 -0.19,-0.05 -0.29,-0.06 -2.51,-0.16 -4.93,-0.74 -7.26,-1.7 -9.68,-3.98 -15.52,-14.03 -14.15,-24.41 0.64,-4.87 2.62,-9.15 5.96,-12.75 3.65,-3.93 8.13,-6.33 13.43,-7.18 0.77,-0.12 1.54,-0.19 2.31,-0.29 0.88,0 1.76,0 2.64,0z"/>
 </g>
</svg>
